<svg width="2500" height="625" viewBox="0 0 2500 625" fill="none" xmlns="http://www.w3.org/2000/svg">
<rect width="2500" height="625" fill="#030616"/>
<path d="M774.446 88.4995H807.38C823.504 88.4995 835.888 96.2526 844.533 111.759C846.934 118.071 848.135 122.908 848.135 126.27C848.135 146.991 838.186 160.987 818.289 168.26C814.241 168.809 812.217 169.186 812.217 169.392C807.14 169.186 803.126 169.084 800.176 169.084H778.049C767.894 169.084 761.17 172.617 757.877 179.684C756.642 182.223 756.024 184.727 756.024 187.197V190.284H847.209C847.62 190.353 847.826 190.559 847.826 190.902V211.382C847.826 211.794 847.62 212 847.209 212H734.618C734.206 212 734 211.794 734 211.382V187.814C734 172.308 741.444 160.233 756.333 151.588C762.508 148.775 768.237 147.368 773.52 147.368H808.306C815.51 147.368 821.034 143.354 824.876 135.327C825.493 133.337 825.905 130.421 826.111 126.579C826.111 122.805 823.778 118.757 819.112 114.435C816.231 111.622 810.708 110.215 802.543 110.215H778.049C767.894 110.215 761.17 113.748 757.877 120.815C756.848 122.737 756.127 125.653 755.716 129.563C754.275 129.769 753.486 129.872 753.348 129.872C742.851 130.078 736.504 130.181 734.309 130.181L734 129.563V129.255C734 112.033 742.542 99.3401 759.626 91.1753C764.704 89.3914 769.644 88.4995 774.446 88.4995ZM911.618 88.2937H932.819C933.231 88.3623 933.437 88.5681 933.437 88.9112V211.382C933.437 211.794 933.231 212 932.819 212H911.618C911.207 212 911.001 211.794 911.001 211.382V126.373C905.238 129.186 899.92 130.593 895.049 130.593H883.213C882.802 130.593 882.596 130.421 882.596 130.078V109.186C882.596 108.843 888.256 108.328 899.577 107.642C907.193 103.457 911.001 98.5168 911.001 92.822V88.9112C911.07 88.4995 911.275 88.2937 911.618 88.2937Z" fill="white"/>
<path d="M1023.92 87.8254H1084.71C1093.86 89.2182 1100.93 91.8712 1105.9 95.7843C1116.71 104.009 1122.12 115.715 1122.12 130.903V208.403C1122.12 208.801 1121.92 209 1121.52 209H1101.22C1100.83 209 1100.63 208.801 1100.63 208.403V130.605C1100.63 120.855 1097.08 114.355 1089.98 111.105C1087.93 109.911 1083.52 109.315 1076.75 109.315H1024.22C1015.2 109.315 1009.2 114.057 1006.22 123.541C1006.02 124.868 1005.92 125.929 1005.92 126.725V208.403C1005.92 208.801 1005.72 209 1005.32 209H984.726C984.328 209 984.129 208.801 984.129 208.403V130.306C984.129 111.205 992.685 97.9399 1009.8 90.5116C1014.24 88.7208 1018.95 87.8254 1023.92 87.8254Z" fill="white"/>
<path d="M729.898 522V287.394H804.958C830.988 287.394 850.735 293.004 864.199 304.224C877.663 315.444 884.394 332.274 884.394 354.713C884.394 377.153 877.55 394.319 863.862 406.212C850.399 417.88 830.764 423.715 804.958 423.715H768.606V522H729.898ZM768.606 389.046H800.919C814.832 389.046 825.715 386.465 833.569 381.304C841.423 376.143 845.35 367.504 845.35 355.386C845.35 343.493 841.535 334.966 833.905 329.805C826.5 324.644 815.505 322.064 800.919 322.064H768.606V389.046ZM1008.02 525.029C992.309 525.029 978.172 521.327 965.605 513.922C953.039 506.517 943.166 496.307 935.985 483.292C929.029 470.277 925.551 455.467 925.551 438.861C925.551 422.256 929.029 407.446 935.985 394.431C943.166 381.416 952.927 371.318 965.269 364.138C977.835 356.733 992.084 353.03 1008.02 353.03C1024.17 353.03 1038.31 356.733 1050.43 364.138C1062.77 371.318 1072.53 381.416 1079.71 394.431C1086.89 407.446 1090.48 422.256 1090.48 438.861C1090.48 455.467 1086.89 470.277 1079.71 483.292C1072.75 496.307 1062.99 506.517 1050.43 513.922C1038.09 521.327 1023.95 525.029 1008.02 525.029ZM1008.35 492.043C1017.55 492.043 1025.52 489.911 1032.25 485.648C1038.98 481.384 1044.14 475.214 1047.73 467.135C1051.32 459.057 1053.12 449.632 1053.12 438.861C1053.12 427.866 1051.32 418.441 1047.73 410.588C1044.14 402.509 1038.98 396.338 1032.25 392.075C1025.52 387.811 1017.55 385.68 1008.35 385.68C998.704 385.68 990.513 387.924 983.782 392.412C977.05 396.675 971.889 402.734 968.298 410.588C964.708 418.441 962.913 427.866 962.913 438.861C962.913 449.632 964.708 459.057 968.298 467.135C971.889 475.214 977.05 481.384 983.782 485.648C990.513 489.911 998.704 492.043 1008.35 492.043ZM1153.16 522V356.059H1190.52V522H1153.16ZM1151.48 328.795V287.394H1192.21V328.795H1151.48ZM1260.96 522V356.059H1298.32V392.748L1291.59 394.431C1294.51 384.782 1298.77 376.928 1304.38 370.87C1309.99 364.811 1316.5 360.323 1323.9 357.406C1331.53 354.489 1339.5 353.03 1347.8 353.03C1366.42 353.03 1380.9 358.416 1391.22 369.187C1401.77 379.733 1407.04 394.88 1407.04 414.627V522H1369.68V428.427C1369.68 413.617 1366.99 402.734 1361.6 395.777C1356.21 388.821 1347.91 385.343 1336.69 385.343C1328.39 385.343 1321.32 387.363 1315.49 391.402C1309.88 395.217 1305.61 401.275 1302.7 409.578C1299.78 417.88 1298.32 428.427 1298.32 441.218V522H1260.96ZM1536.15 525.029C1527.85 525.029 1520 523.459 1512.59 520.317C1505.41 516.951 1499.69 511.678 1495.43 504.497C1491.16 497.092 1489.03 487.443 1489.03 475.55V315.668L1526.73 294.8V465.116C1526.73 474.54 1528.08 481.833 1530.77 486.994C1533.69 491.931 1538.85 494.399 1546.25 494.399C1548.5 494.399 1551.08 494.175 1553.99 493.726C1557.14 493.053 1560.39 492.268 1563.76 491.37V520.317C1559.27 521.888 1554.67 523.01 1549.96 523.683C1545.47 524.581 1540.87 525.029 1536.15 525.029ZM1457.39 385.007V356.059H1563.76V385.007H1457.39ZM1624.12 522V356.059H1661.82V400.826L1654.75 401.836C1655.88 392.187 1659.13 383.772 1664.52 376.592C1669.9 369.187 1676.41 363.465 1684.04 359.425C1691.89 355.162 1699.63 353.03 1707.26 353.03C1712.65 353.03 1717.81 353.703 1722.75 355.05C1727.68 356.396 1732.84 358.64 1738.23 361.782L1720.05 395.441C1717.58 393.87 1714.33 392.636 1710.29 391.738C1706.48 390.616 1702.77 390.055 1699.18 390.055C1694.47 390.055 1689.76 390.953 1685.05 392.748C1680.56 394.543 1676.52 397.348 1672.93 401.163C1669.34 404.753 1666.65 409.466 1664.85 415.3C1663.73 418.441 1662.83 422.593 1662.16 427.754C1661.71 432.691 1661.49 439.647 1661.49 448.623V522H1624.12ZM1857.91 525.029C1842.21 525.029 1828.07 521.327 1815.5 513.922C1802.94 506.517 1793.06 496.307 1785.88 483.292C1778.93 470.277 1775.45 455.467 1775.45 438.861C1775.45 422.256 1778.93 407.446 1785.88 394.431C1793.06 381.416 1802.83 371.318 1815.17 364.138C1827.73 356.733 1841.98 353.03 1857.91 353.03C1874.07 353.03 1888.21 356.733 1900.33 364.138C1912.67 371.318 1922.43 381.416 1929.61 394.431C1936.79 407.446 1940.38 422.256 1940.38 438.861C1940.38 455.467 1936.79 470.277 1929.61 483.292C1922.65 496.307 1912.89 506.517 1900.33 513.922C1887.98 521.327 1873.85 525.029 1857.91 525.029ZM1858.25 492.043C1867.45 492.043 1875.42 489.911 1882.15 485.648C1888.88 481.384 1894.04 475.214 1897.63 467.135C1901.22 459.057 1903.02 449.632 1903.02 438.861C1903.02 427.866 1901.22 418.441 1897.63 410.588C1894.04 402.509 1888.88 396.338 1882.15 392.075C1875.42 387.811 1867.45 385.68 1858.25 385.68C1848.6 385.68 1840.41 387.924 1833.68 392.412C1826.95 396.675 1821.79 402.734 1818.2 410.588C1814.61 418.441 1812.81 427.866 1812.81 438.861C1812.81 449.632 1814.61 459.057 1818.2 467.135C1821.79 475.214 1826.95 481.384 1833.68 485.648C1840.41 489.911 1848.6 492.043 1858.25 492.043ZM2003.4 522V356.059H2040.76V392.748L2034.03 394.431C2036.94 384.782 2041.21 376.928 2046.82 370.87C2052.43 364.811 2058.93 360.323 2066.34 357.406C2073.97 354.489 2081.93 353.03 2090.24 353.03C2108.86 353.03 2123.34 358.416 2133.66 369.187C2144.2 379.733 2149.48 394.88 2149.48 414.627V522H2112.12V428.427C2112.12 413.617 2109.42 402.734 2104.04 395.777C2098.65 388.821 2090.35 385.343 2079.13 385.343C2070.83 385.343 2063.76 387.363 2057.92 391.402C2052.31 395.217 2048.05 401.275 2045.13 409.578C2042.22 417.88 2040.76 428.427 2040.76 441.218V522H2003.4Z" fill="white"/>
<circle cx="330.5" cy="312.5" r="269.709" stroke="white" stroke-width="71.5816"/>
</svg>
